<?xml version="1.0" encoding="UTF-8" standalone="no"?>
<svg version="1.1"
     baseProfile="full"
     xmlns="http://www.w3.org/2000/svg">
    <g transform="translate(2.000000, 3.000000)" class="style-scope iron-icon">
        <path d="M12.9,0H4C3.2,0,2.5,0.5,2.2,1.2l-3,7.3C-0.9,8.7-1,8.9-1,9.2v2 c0,1.1,0.9,2,2,2h6.3l-1,4.7v0.3c0,0.4,0.2,0.8,0.4,1.1l0,0C7.3,20,8.2,20,8.8,19.4l5.5-5.7c0.4-0.4,0.6-0.9,0.6-1.4V2 C14.9,0.9,14,0,12.9,0L12.9,0z M12.7,12.6l-3.5,3.6c-0.2,0.2-0.5,0-0.4-0.2l1-4.6H2c-0.6,0-1-0.5-1-1V9.4l0-0.1l2.7-6.6 C3.9,2.2,4.3,2,4.7,2L12,2c0.5,0,1,0.5,1,1v8.8C12.9,12.1,12.8,12.4,12.7,12.6L12.7,12.6z"
              class="style-scope iron-icon"></path>
        <path d="M17,0h4v12h-4V0z" class="style-scope iron-icon"></path>
    </g>
</svg>