<?xml version="1.0" encoding="UTF-8" standalone="no"?>
<svg
   xmlns:dc="http://purl.org/dc/elements/1.1/"
   xmlns:cc="http://creativecommons.org/ns#"
   xmlns:rdf="http://www.w3.org/1999/02/22-rdf-syntax-ns#"
   xmlns:svg="http://www.w3.org/2000/svg"
   xmlns="http://www.w3.org/2000/svg"
   xmlns:sodipodi="http://sodipodi.sourceforge.net/DTD/sodipodi-0.dtd"
   xmlns:inkscape="http://www.inkscape.org/namespaces/inkscape"
   version="1.1"
   id="svg30"
   sodipodi:docname="thumbsUp.svg"
   inkscape:version="0.92.2 (5c3e80d, 2017-08-06)">
  <metadata
     id="metadata36">
    <rdf:RDF>
      <cc:Work
         rdf:about="">
        <dc:format>image/svg+xml</dc:format>
        <dc:type
           rdf:resource="http://purl.org/dc/dcmitype/StillImage" />
      </cc:Work>
    </rdf:RDF>
  </metadata>
  <defs
     id="defs34" />
  <sodipodi:namedview
     pagecolor="#ffffff"
     bordercolor="#666666"
     borderopacity="1"
     objecttolerance="10"
     gridtolerance="10"
     guidetolerance="10"
     inkscape:pageopacity="0"
     inkscape:pageshadow="2"
     inkscape:window-width="1920"
     inkscape:window-height="1027"
     id="namedview32"
     showgrid="false"
     inkscape:zoom="8.6"
     inkscape:cx="50"
     inkscape:cy="50"
     inkscape:window-x="-8"
     inkscape:window-y="-8"
     inkscape:window-maximized="1"
     inkscape:current-layer="g28" />
  <g
     transform="translate(12.000000, 12.000000)"
     class="style-scope iron-icon"
     id="g28">
    <path
       d="m 7,19.903111 h 9 c 0.8,0 1.5,-0.5 1.8,-1.2 l 3,-7.3 c 0.1,-0.2 0.2,-0.4 0.2,-0.7 V 8.6031107 c 0,-1.1 -0.9,-2.1 -2,-2.1 h -6.3 l 1,-4.7 v -0.3 c 0,-0.4 -0.2,-0.80000002 -0.4,-1.10000002 v 0 c -0.6,-0.6 -1.5,-0.5 -2.1,0.1 L 5.6,6.2031107 c -0.4,0.4 -0.6,0.9 -0.6,1.4 V 17.903111 c 0,1.1 0.9,2 2,2 z m 0.3,-12.6000003 3.5,-3.6 c 0.2,-0.2 0.5,0 0.4,0.2 l -1,4.7 H 18 c 0.6,0 1,0.5 1,1 v 0.9000003 0.1 l -2.7,6.7 c -0.2,0.3 -0.6,0.6 -1,0.6 H 8 c -0.6,0 -1,-0.5 -1,-1 V 8.1031107 c 0,-0.4 0.1,-0.6 0.3,-0.8 z"
       class="style-scope iron-icon"
       id="path24"
       inkscape:connector-curvature="0" />
    <path
       d="M 3,19.903111 H -1 V 7.9031107 h 4 z"
       class="style-scope iron-icon"
       id="path26"
       inkscape:connector-curvature="0" />
  </g>
</svg>
